<svg width="167" height="167" viewBox="0 0 167 167" fill="none" xmlns="http://www.w3.org/2000/svg">
<g clip-path="url(#clip0)">
<rect x="0.362854" y="0.5" width="166" height="166" rx="20" fill="#5A91AF"/>
<path fill-rule="evenodd" clip-rule="evenodd" d="M53.5447 111.287C59.5696 111.287 64.4538 106.443 64.4538 100.467C64.4538 94.4917 59.5696 89.6476 53.5447 89.6476C47.5197 89.6476 42.6356 94.4917 42.6356 100.467C42.6356 106.443 47.5197 111.287 53.5447 111.287ZM53.5447 118.5C63.5862 118.5 71.7265 110.426 71.7265 100.467C71.7265 90.508 63.5862 82.4344 53.5447 82.4344C43.5031 82.4344 35.3629 90.508 35.3629 100.467C35.3629 110.426 43.5031 118.5 53.5447 118.5Z" fill="white"/>
<path fill-rule="evenodd" clip-rule="evenodd" d="M113.181 111.287C119.206 111.287 124.09 106.443 124.09 100.467C124.09 94.4917 119.206 89.6476 113.181 89.6476C107.156 89.6476 102.272 94.4917 102.272 100.467C102.272 106.443 107.156 111.287 113.181 111.287ZM113.181 118.5C123.223 118.5 131.363 110.426 131.363 100.467C131.363 90.508 123.223 82.4344 113.181 82.4344C103.139 82.4344 94.9992 90.508 94.9992 100.467C94.9992 110.426 103.139 118.5 113.181 118.5Z" fill="white"/>
<path fill-rule="evenodd" clip-rule="evenodd" d="M82.6356 59.3525C88.6605 59.3525 93.5447 54.5083 93.5447 48.5328C93.5447 42.5572 88.6605 37.7131 82.6356 37.7131C76.6107 37.7131 71.7265 42.5572 71.7265 48.5328C71.7265 54.5083 76.6107 59.3525 82.6356 59.3525ZM82.6356 66.5656C92.6772 66.5656 100.817 58.492 100.817 48.5328C100.817 38.5736 92.6772 30.5 82.6356 30.5C72.5941 30.5 64.4538 38.5736 64.4538 48.5328C64.4538 58.492 72.5941 66.5656 82.6356 66.5656Z" fill="white"/>
<path fill-rule="evenodd" clip-rule="evenodd" d="M63.9559 60.0738C57.776 64.6456 53.3574 71.4292 51.8915 79.2422C52.4373 79.2017 52.9886 79.181 53.5447 79.181C55.4917 79.181 57.379 79.4339 59.1753 79.9085C60.4566 74.0171 63.9367 68.9368 68.7214 65.5546C66.841 64.0088 65.2265 62.1561 63.9559 60.0738ZM96.5497 65.5546C101.445 69.0151 104.975 74.2531 106.181 80.3187C108.378 79.581 110.733 79.181 113.181 79.181C113.244 79.181 113.306 79.1813 113.368 79.1818C111.891 71.3942 107.479 64.6339 101.315 60.0738C100.045 62.1561 98.4302 64.0088 96.5497 65.5546ZM92.2032 106.788C92.8842 109.147 93.9587 111.341 95.3519 113.296C91.4668 115.013 87.1636 115.968 82.6356 115.968C78.5356 115.968 74.6199 115.185 71.032 113.763C72.486 111.833 73.6231 109.655 74.3665 107.304C76.9444 108.243 79.7297 108.755 82.6356 108.755C86.0363 108.755 89.2719 108.053 92.2032 106.788Z" fill="white"/>
</g>
<defs>
<clipPath id="clip0">
<rect width="166" height="166" fill="white" transform="translate(0.362854 0.5)"/>
</clipPath>
</defs>
</svg>
