<svg width="167" height="167" viewBox="0 0 167 167" fill="none" xmlns="http://www.w3.org/2000/svg">
<rect width="166" height="166" transform="translate(0.362854 0.5)" fill="white"/>
<path fill-rule="evenodd" clip-rule="evenodd" d="M48.575 123.139C55.6041 123.139 61.3023 117.525 61.3023 110.598C61.3023 103.672 55.6041 98.0574 48.575 98.0574C41.5459 98.0574 35.8477 103.672 35.8477 110.598C35.8477 117.525 41.5459 123.139 48.575 123.139ZM48.575 131.5C60.2901 131.5 69.7871 122.142 69.7871 110.598C69.7871 99.0547 60.2901 89.6967 48.575 89.6967C36.8598 89.6967 27.3629 99.0547 27.3629 110.598C27.3629 122.142 36.8598 131.5 48.575 131.5Z" fill="#5A91AF"/>
<path fill-rule="evenodd" clip-rule="evenodd" d="M118.151 123.139C125.18 123.139 130.878 117.525 130.878 110.598C130.878 103.672 125.18 98.0574 118.151 98.0574C111.122 98.0574 105.424 103.672 105.424 110.598C105.424 117.525 111.122 123.139 118.151 123.139ZM118.151 131.5C129.866 131.5 139.363 122.142 139.363 110.598C139.363 99.0547 129.866 89.6967 118.151 89.6967C106.436 89.6967 96.9387 99.0547 96.9387 110.598C96.9387 122.142 106.436 131.5 118.151 131.5Z" fill="#5A91AF"/>
<path fill-rule="evenodd" clip-rule="evenodd" d="M82.5144 62.9426C89.5435 62.9426 95.2417 57.3278 95.2417 50.4016C95.2417 43.4754 89.5435 37.8607 82.5144 37.8607C75.4854 37.8607 69.7872 43.4754 69.7872 50.4016C69.7872 57.3278 75.4854 62.9426 82.5144 62.9426ZM82.5144 71.3033C94.2296 71.3033 103.727 61.9453 103.727 50.4016C103.727 38.858 94.2296 29.5 82.5144 29.5C70.7993 29.5 61.3023 38.858 61.3023 50.4016C61.3023 61.9453 70.7993 71.3033 82.5144 71.3033Z" fill="#5A91AF"/>
<path fill-rule="evenodd" clip-rule="evenodd" d="M60.7214 63.7787C53.5116 69.0779 48.3564 76.9406 46.6463 85.9966C47.283 85.9496 47.9262 85.9257 48.575 85.9257C50.8465 85.9257 53.0484 86.2189 55.144 86.7689C56.6389 79.9403 60.699 74.0518 66.2812 70.1314C64.0874 68.3397 62.2038 66.1922 60.7214 63.7787ZM98.7475 70.1314C104.459 74.1424 108.577 80.2138 109.984 87.2443C112.548 86.3893 115.294 85.9257 118.151 85.9257C118.224 85.9257 118.296 85.926 118.369 85.9266C116.646 76.9001 111.498 69.0642 104.307 63.7787C102.825 66.1922 100.941 68.3397 98.7475 70.1314ZM93.6765 117.925C94.471 120.659 95.7247 123.203 97.3501 125.468C92.8175 127.459 87.797 128.565 82.5144 128.565C77.7311 128.565 73.1627 127.658 68.9768 126.009C70.6732 123.773 71.9998 121.248 72.8671 118.523C75.8746 119.611 79.1242 120.204 82.5144 120.204C86.4819 120.204 90.2567 119.391 93.6765 117.925Z" fill="#5A91AF"/>
</svg>
