<svg width="534" height="167" viewBox="0 0 534 167" fill="none" xmlns="http://www.w3.org/2000/svg">
<g clip-path="url(#clip0)">
<path fill-rule="evenodd" clip-rule="evenodd" d="M48.575 123.139C55.604 123.139 61.3022 117.525 61.3022 110.598C61.3022 103.672 55.604 98.0574 48.575 98.0574C41.5459 98.0574 35.8477 103.672 35.8477 110.598C35.8477 117.525 41.5459 123.139 48.575 123.139ZM48.575 131.5C60.2901 131.5 69.7871 122.142 69.7871 110.598C69.7871 99.0547 60.2901 89.6967 48.575 89.6967C36.8598 89.6967 27.3628 99.0547 27.3628 110.598C27.3628 122.142 36.8598 131.5 48.575 131.5Z" fill="#5A91AF"/>
<path fill-rule="evenodd" clip-rule="evenodd" d="M118.151 123.139C125.18 123.139 130.878 117.525 130.878 110.598C130.878 103.672 125.18 98.0574 118.151 98.0574C111.122 98.0574 105.423 103.672 105.423 110.598C105.423 117.525 111.122 123.139 118.151 123.139ZM118.151 131.5C129.866 131.5 139.363 122.142 139.363 110.598C139.363 99.0547 129.866 89.6967 118.151 89.6967C106.436 89.6967 96.9386 99.0547 96.9386 110.598C96.9386 122.142 106.436 131.5 118.151 131.5Z" fill="#5A91AF"/>
<path fill-rule="evenodd" clip-rule="evenodd" d="M82.5144 62.9426C89.5435 62.9426 95.2417 57.3278 95.2417 50.4016C95.2417 43.4754 89.5435 37.8607 82.5144 37.8607C75.4853 37.8607 69.7871 43.4754 69.7871 50.4016C69.7871 57.3278 75.4853 62.9426 82.5144 62.9426ZM82.5144 71.3033C94.2295 71.3033 103.727 61.9453 103.727 50.4016C103.727 38.858 94.2295 29.5 82.5144 29.5C70.7993 29.5 61.3023 38.858 61.3023 50.4016C61.3023 61.9453 70.7993 71.3033 82.5144 71.3033Z" fill="#5A91AF"/>
<path fill-rule="evenodd" clip-rule="evenodd" d="M60.7214 63.7787C53.5115 69.0779 48.3564 76.9406 46.6463 85.9966C47.283 85.9496 47.9262 85.9257 48.575 85.9257C50.8465 85.9257 53.0483 86.2189 55.144 86.7689C56.6389 79.9403 60.699 74.0518 66.2812 70.1314C64.0874 68.3397 62.2037 66.1922 60.7214 63.7787ZM98.7475 70.1314C104.459 74.1424 108.577 80.2138 109.984 87.2443C112.548 86.3893 115.294 85.9257 118.151 85.9257C118.224 85.9257 118.296 85.926 118.369 85.9266C116.646 76.9001 111.498 69.0642 104.307 63.7787C102.825 66.1922 100.941 68.3397 98.7475 70.1314ZM93.6765 117.925C94.471 120.659 95.7247 123.202 97.3501 125.468C92.8175 127.459 87.797 128.565 82.5144 128.565C77.7311 128.565 73.1627 127.658 68.9768 126.009C70.6732 123.773 71.9997 121.248 72.8671 118.523C75.8746 119.611 79.1241 120.204 82.5144 120.204C86.4819 120.204 90.2567 119.391 93.6765 117.925Z" fill="#5A91AF"/>
<path d="M179.675 106.22C174.539 106.22 169.907 105.116 165.779 102.908C161.651 100.652 158.411 97.556 156.059 93.62C153.707 89.636 152.531 85.196 152.531 80.3C152.531 75.404 153.707 70.988 156.059 67.052C158.411 63.068 161.651 59.972 165.779 57.764C169.907 55.508 174.539 54.38 179.675 54.38C184.811 54.38 189.443 55.508 193.571 57.764C197.699 59.972 200.939 63.044 203.291 66.98C205.643 70.916 206.819 75.356 206.819 80.3C206.819 85.244 205.643 89.684 203.291 93.62C200.939 97.556 197.699 100.652 193.571 102.908C189.443 105.116 184.811 106.22 179.675 106.22ZM179.675 98.012C183.035 98.012 186.059 97.268 188.747 95.78C191.435 94.244 193.547 92.132 195.083 89.444C196.619 86.708 197.387 83.66 197.387 80.3C197.387 76.94 196.619 73.916 195.083 71.228C193.547 68.492 191.435 66.38 188.747 64.892C186.059 63.356 183.035 62.588 179.675 62.588C176.315 62.588 173.291 63.356 170.603 64.892C167.915 66.38 165.803 68.492 164.267 71.228C162.731 73.916 161.963 76.94 161.963 80.3C161.963 83.66 162.731 86.708 164.267 89.444C165.803 92.132 167.915 94.244 170.603 95.78C173.291 97.268 176.315 98.012 179.675 98.012ZM237.692 66.62C242.54 66.62 246.428 68.036 249.356 70.868C252.284 73.7 253.748 77.9 253.748 83.468V105.5H244.748V84.62C244.748 81.26 243.956 78.74 242.372 77.06C240.788 75.332 238.532 74.468 235.604 74.468C232.292 74.468 229.676 75.476 227.756 77.492C225.836 79.46 224.876 82.316 224.876 86.06V105.5H215.876V67.052H224.444V72.02C225.932 70.244 227.804 68.9 230.06 67.988C232.316 67.076 234.86 66.62 237.692 66.62ZM288.277 103.412C287.221 104.276 285.925 104.924 284.389 105.356C282.901 105.788 281.317 106.004 279.637 106.004C275.413 106.004 272.149 104.9 269.845 102.692C267.541 100.484 266.389 97.268 266.389 93.044V74.54H260.053V67.34H266.389V58.556H275.389V67.34H285.685V74.54H275.389V92.828C275.389 94.7 275.845 96.14 276.757 97.148C277.669 98.108 278.989 98.588 280.717 98.588C282.733 98.588 284.413 98.06 285.757 97.004L288.277 103.412ZM311.695 106.004C307.807 106.004 304.303 105.164 301.183 103.484C298.063 101.804 295.615 99.476 293.839 96.5C292.111 93.476 291.247 90.068 291.247 86.276C291.247 82.484 292.111 79.1 293.839 76.124C295.615 73.148 298.063 70.82 301.183 69.14C304.303 67.46 307.807 66.62 311.695 66.62C315.631 66.62 319.159 67.46 322.279 69.14C325.399 70.82 327.823 73.148 329.551 76.124C331.327 79.1 332.215 82.484 332.215 86.276C332.215 90.068 331.327 93.476 329.551 96.5C327.823 99.476 325.399 101.804 322.279 103.484C319.159 105.164 315.631 106.004 311.695 106.004ZM311.695 98.3C315.007 98.3 317.743 97.196 319.903 94.988C322.063 92.78 323.143 89.876 323.143 86.276C323.143 82.676 322.063 79.772 319.903 77.564C317.743 75.356 315.007 74.252 311.695 74.252C308.383 74.252 305.647 75.356 303.487 77.564C301.375 79.772 300.319 82.676 300.319 86.276C300.319 89.876 301.375 92.78 303.487 94.988C305.647 97.196 308.383 98.3 311.695 98.3ZM340.822 52.076H349.822V105.5H340.822V52.076ZM376.322 66.62C381.986 66.62 386.306 67.988 389.282 70.724C392.306 73.412 393.818 77.492 393.818 82.964V105.5H385.322V100.82C384.218 102.5 382.634 103.796 380.57 104.708C378.554 105.572 376.106 106.004 373.226 106.004C370.346 106.004 367.826 105.524 365.666 104.564C363.506 103.556 361.826 102.188 360.626 100.46C359.474 98.684 358.898 96.692 358.898 94.484C358.898 91.028 360.17 88.268 362.714 86.204C365.306 84.092 369.362 83.036 374.882 83.036H384.818V82.46C384.818 79.772 384.002 77.708 382.37 76.268C380.786 74.828 378.41 74.108 375.242 74.108C373.082 74.108 370.946 74.444 368.834 75.116C366.77 75.788 365.018 76.724 363.578 77.924L360.05 71.372C362.066 69.836 364.49 68.66 367.322 67.844C370.154 67.028 373.154 66.62 376.322 66.62ZM375.098 99.452C377.354 99.452 379.346 98.948 381.074 97.94C382.85 96.884 384.098 95.396 384.818 93.476V89.012H375.53C370.346 89.012 367.754 90.716 367.754 94.124C367.754 95.756 368.402 97.052 369.698 98.012C370.994 98.972 372.794 99.452 375.098 99.452Z" fill="#5A91AF"/>
<path d="M408.248 106.004C406.616 106.004 405.224 105.452 404.072 104.348C402.92 103.196 402.344 101.756 402.344 100.028C402.344 98.252 402.896 96.812 404 95.708C405.152 94.604 406.568 94.052 408.248 94.052C409.928 94.052 411.32 94.604 412.424 95.708C413.576 96.812 414.152 98.252 414.152 100.028C414.152 101.756 413.576 103.196 412.424 104.348C411.272 105.452 409.88 106.004 408.248 106.004ZM422.947 67.052H431.947V105.5H422.947V67.052ZM427.483 60.716C425.851 60.716 424.483 60.212 423.379 59.204C422.275 58.148 421.723 56.852 421.723 55.316C421.723 53.78 422.275 52.508 423.379 51.5C424.483 50.444 425.851 49.916 427.483 49.916C429.115 49.916 430.483 50.42 431.587 51.428C432.691 52.388 433.243 53.612 433.243 55.1C433.243 56.684 432.691 58.028 431.587 59.132C430.531 60.188 429.163 60.716 427.483 60.716ZM461.039 106.004C457.151 106.004 453.647 105.164 450.527 103.484C447.407 101.804 444.959 99.476 443.183 96.5C441.455 93.476 440.591 90.068 440.591 86.276C440.591 82.484 441.455 79.1 443.183 76.124C444.959 73.148 447.407 70.82 450.527 69.14C453.647 67.46 457.151 66.62 461.039 66.62C464.975 66.62 468.503 67.46 471.623 69.14C474.743 70.82 477.167 73.148 478.895 76.124C480.671 79.1 481.559 82.484 481.559 86.276C481.559 90.068 480.671 93.476 478.895 96.5C477.167 99.476 474.743 101.804 471.623 103.484C468.503 105.164 464.975 106.004 461.039 106.004ZM461.039 98.3C464.351 98.3 467.087 97.196 469.247 94.988C471.407 92.78 472.487 89.876 472.487 86.276C472.487 82.676 471.407 79.772 469.247 77.564C467.087 75.356 464.351 74.252 461.039 74.252C457.727 74.252 454.991 75.356 452.831 77.564C450.719 79.772 449.663 82.676 449.663 86.276C449.663 89.876 450.719 92.78 452.831 94.988C454.991 97.196 457.727 98.3 461.039 98.3Z" fill="#CBCBCB"/>
</g>
<defs>
<clipPath id="clip0">
<rect width="533" height="166" fill="white" transform="translate(0.362839 0.5)"/>
</clipPath>
</defs>
</svg>
