<svg width="534" height="167" viewBox="0 0 534 167" fill="none" xmlns="http://www.w3.org/2000/svg">
<g clip-path="url(#clip0)">
<rect x="0.362839" y="0.5" width="166" height="166" fill="#5A91AF"/>
<path fill-rule="evenodd" clip-rule="evenodd" d="M48.575 123.139C55.604 123.139 61.3022 117.525 61.3022 110.598C61.3022 103.672 55.604 98.0574 48.575 98.0574C41.5459 98.0574 35.8477 103.672 35.8477 110.598C35.8477 117.525 41.5459 123.139 48.575 123.139ZM48.575 131.5C60.2901 131.5 69.7871 122.142 69.7871 110.598C69.7871 99.0547 60.2901 89.6967 48.575 89.6967C36.8598 89.6967 27.3628 99.0547 27.3628 110.598C27.3628 122.142 36.8598 131.5 48.575 131.5Z" fill="white"/>
<path fill-rule="evenodd" clip-rule="evenodd" d="M118.151 123.139C125.18 123.139 130.878 117.525 130.878 110.598C130.878 103.672 125.18 98.0574 118.151 98.0574C111.122 98.0574 105.423 103.672 105.423 110.598C105.423 117.525 111.122 123.139 118.151 123.139ZM118.151 131.5C129.866 131.5 139.363 122.142 139.363 110.598C139.363 99.0547 129.866 89.6967 118.151 89.6967C106.436 89.6967 96.9386 99.0547 96.9386 110.598C96.9386 122.142 106.436 131.5 118.151 131.5Z" fill="white"/>
<path fill-rule="evenodd" clip-rule="evenodd" d="M82.5144 62.9426C89.5435 62.9426 95.2417 57.3278 95.2417 50.4016C95.2417 43.4754 89.5435 37.8607 82.5144 37.8607C75.4853 37.8607 69.7871 43.4754 69.7871 50.4016C69.7871 57.3278 75.4853 62.9426 82.5144 62.9426ZM82.5144 71.3033C94.2295 71.3033 103.727 61.9453 103.727 50.4016C103.727 38.858 94.2295 29.5 82.5144 29.5C70.7993 29.5 61.3023 38.858 61.3023 50.4016C61.3023 61.9453 70.7993 71.3033 82.5144 71.3033Z" fill="white"/>
<path fill-rule="evenodd" clip-rule="evenodd" d="M60.7214 63.7787C53.5115 69.0779 48.3564 76.9406 46.6463 85.9966C47.283 85.9496 47.9262 85.9257 48.575 85.9257C50.8465 85.9257 53.0483 86.2189 55.144 86.7689C56.6389 79.9403 60.699 74.0518 66.2812 70.1314C64.0874 68.3397 62.2037 66.1922 60.7214 63.7787ZM98.7475 70.1314C104.459 74.1424 108.577 80.2138 109.984 87.2443C112.548 86.3893 115.294 85.9257 118.151 85.9257C118.224 85.9257 118.296 85.926 118.369 85.9266C116.646 76.9001 111.498 69.0642 104.307 63.7787C102.825 66.1922 100.941 68.3397 98.7475 70.1314ZM93.6765 117.925C94.471 120.659 95.7247 123.202 97.3501 125.468C92.8175 127.459 87.797 128.565 82.5144 128.565C77.7311 128.565 73.1627 127.658 68.9768 126.009C70.6732 123.773 71.9997 121.248 72.8671 118.523C75.8746 119.611 79.1241 120.204 82.5144 120.204C86.4819 120.204 90.2567 119.391 93.6765 117.925Z" fill="white"/>
<path d="M213.675 108.22C208.539 108.22 203.907 107.116 199.779 104.908C195.651 102.652 192.411 99.556 190.059 95.62C187.707 91.636 186.531 87.196 186.531 82.3C186.531 77.404 187.707 72.988 190.059 69.052C192.411 65.068 195.651 61.972 199.779 59.764C203.907 57.508 208.539 56.38 213.675 56.38C218.811 56.38 223.443 57.508 227.571 59.764C231.699 61.972 234.939 65.044 237.291 68.98C239.643 72.916 240.819 77.356 240.819 82.3C240.819 87.244 239.643 91.684 237.291 95.62C234.939 99.556 231.699 102.652 227.571 104.908C223.443 107.116 218.811 108.22 213.675 108.22ZM213.675 100.012C217.035 100.012 220.059 99.268 222.747 97.78C225.435 96.244 227.547 94.132 229.083 91.444C230.619 88.708 231.387 85.66 231.387 82.3C231.387 78.94 230.619 75.916 229.083 73.228C227.547 70.492 225.435 68.38 222.747 66.892C220.059 65.356 217.035 64.588 213.675 64.588C210.315 64.588 207.291 65.356 204.603 66.892C201.915 68.38 199.803 70.492 198.267 73.228C196.731 75.916 195.963 78.94 195.963 82.3C195.963 85.66 196.731 88.708 198.267 91.444C199.803 94.132 201.915 96.244 204.603 97.78C207.291 99.268 210.315 100.012 213.675 100.012ZM271.692 68.62C276.54 68.62 280.428 70.036 283.356 72.868C286.284 75.7 287.748 79.9 287.748 85.468V107.5H278.748V86.62C278.748 83.26 277.956 80.74 276.372 79.06C274.788 77.332 272.532 76.468 269.604 76.468C266.292 76.468 263.676 77.476 261.756 79.492C259.836 81.46 258.876 84.316 258.876 88.06V107.5H249.876V69.052H258.444V74.02C259.932 72.244 261.804 70.9 264.06 69.988C266.316 69.076 268.86 68.62 271.692 68.62ZM322.277 105.412C321.221 106.276 319.925 106.924 318.389 107.356C316.901 107.788 315.317 108.004 313.637 108.004C309.413 108.004 306.149 106.9 303.845 104.692C301.541 102.484 300.389 99.268 300.389 95.044V76.54H294.053V69.34H300.389V60.556H309.389V69.34H319.685V76.54H309.389V94.828C309.389 96.7 309.845 98.14 310.757 99.148C311.669 100.108 312.989 100.588 314.717 100.588C316.733 100.588 318.413 100.06 319.757 99.004L322.277 105.412ZM345.695 108.004C341.807 108.004 338.303 107.164 335.183 105.484C332.063 103.804 329.615 101.476 327.839 98.5C326.111 95.476 325.247 92.068 325.247 88.276C325.247 84.484 326.111 81.1 327.839 78.124C329.615 75.148 332.063 72.82 335.183 71.14C338.303 69.46 341.807 68.62 345.695 68.62C349.631 68.62 353.159 69.46 356.279 71.14C359.399 72.82 361.823 75.148 363.551 78.124C365.327 81.1 366.215 84.484 366.215 88.276C366.215 92.068 365.327 95.476 363.551 98.5C361.823 101.476 359.399 103.804 356.279 105.484C353.159 107.164 349.631 108.004 345.695 108.004ZM345.695 100.3C349.007 100.3 351.743 99.196 353.903 96.988C356.063 94.78 357.143 91.876 357.143 88.276C357.143 84.676 356.063 81.772 353.903 79.564C351.743 77.356 349.007 76.252 345.695 76.252C342.383 76.252 339.647 77.356 337.487 79.564C335.375 81.772 334.319 84.676 334.319 88.276C334.319 91.876 335.375 94.78 337.487 96.988C339.647 99.196 342.383 100.3 345.695 100.3ZM374.822 54.076H383.822V107.5H374.822V54.076ZM410.322 68.62C415.986 68.62 420.306 69.988 423.282 72.724C426.306 75.412 427.818 79.492 427.818 84.964V107.5H419.322V102.82C418.218 104.5 416.634 105.796 414.57 106.708C412.554 107.572 410.106 108.004 407.226 108.004C404.346 108.004 401.826 107.524 399.666 106.564C397.506 105.556 395.826 104.188 394.626 102.46C393.474 100.684 392.898 98.692 392.898 96.484C392.898 93.028 394.17 90.268 396.714 88.204C399.306 86.092 403.362 85.036 408.882 85.036H418.818V84.46C418.818 81.772 418.002 79.708 416.37 78.268C414.786 76.828 412.41 76.108 409.242 76.108C407.082 76.108 404.946 76.444 402.834 77.116C400.77 77.788 399.018 78.724 397.578 79.924L394.05 73.372C396.066 71.836 398.49 70.66 401.322 69.844C404.154 69.028 407.154 68.62 410.322 68.62ZM409.098 101.452C411.354 101.452 413.346 100.948 415.074 99.94C416.85 98.884 418.098 97.396 418.818 95.476V91.012H409.53C404.346 91.012 401.754 92.716 401.754 96.124C401.754 97.756 402.402 99.052 403.698 100.012C404.994 100.972 406.794 101.452 409.098 101.452Z" fill="#5A91AF"/>
<path d="M442.248 108.004C440.616 108.004 439.224 107.452 438.072 106.348C436.92 105.196 436.344 103.756 436.344 102.028C436.344 100.252 436.896 98.812 438 97.708C439.152 96.604 440.568 96.052 442.248 96.052C443.928 96.052 445.32 96.604 446.424 97.708C447.576 98.812 448.152 100.252 448.152 102.028C448.152 103.756 447.576 105.196 446.424 106.348C445.272 107.452 443.88 108.004 442.248 108.004ZM456.947 69.052H465.947V107.5H456.947V69.052ZM461.483 62.716C459.851 62.716 458.483 62.212 457.379 61.204C456.275 60.148 455.723 58.852 455.723 57.316C455.723 55.78 456.275 54.508 457.379 53.5C458.483 52.444 459.851 51.916 461.483 51.916C463.115 51.916 464.483 52.42 465.587 53.428C466.691 54.388 467.243 55.612 467.243 57.1C467.243 58.684 466.691 60.028 465.587 61.132C464.531 62.188 463.163 62.716 461.483 62.716ZM495.039 108.004C491.151 108.004 487.647 107.164 484.527 105.484C481.407 103.804 478.959 101.476 477.183 98.5C475.455 95.476 474.591 92.068 474.591 88.276C474.591 84.484 475.455 81.1 477.183 78.124C478.959 75.148 481.407 72.82 484.527 71.14C487.647 69.46 491.151 68.62 495.039 68.62C498.975 68.62 502.503 69.46 505.623 71.14C508.743 72.82 511.167 75.148 512.895 78.124C514.671 81.1 515.559 84.484 515.559 88.276C515.559 92.068 514.671 95.476 512.895 98.5C511.167 101.476 508.743 103.804 505.623 105.484C502.503 107.164 498.975 108.004 495.039 108.004ZM495.039 100.3C498.351 100.3 501.087 99.196 503.247 96.988C505.407 94.78 506.487 91.876 506.487 88.276C506.487 84.676 505.407 81.772 503.247 79.564C501.087 77.356 498.351 76.252 495.039 76.252C491.727 76.252 488.991 77.356 486.831 79.564C484.719 81.772 483.663 84.676 483.663 88.276C483.663 91.876 484.719 94.78 486.831 96.988C488.991 99.196 491.727 100.3 495.039 100.3Z" fill="#CBCBCB"/>
</g>
<defs>
<clipPath id="clip0">
<rect width="533" height="166" fill="white" transform="translate(0.362839 0.5)"/>
</clipPath>
</defs>
</svg>
